<svg width="223" height="223" xmlns="http://www.w3.org/2000/svg">

 <g>
  <title>Layer 1</title>
  <path id="svg_1" d="m177.707,98.987c-35.992,-21.375 -95.36,-23.34 -129.719,-12.912c-5.519,1.674 -11.353,-1.44 -13.024,-6.958c-1.672,-5.521 1.439,-11.352 6.96,-13.029c39.443,-11.972 105.008,-9.66 146.443,14.936c4.964,2.947 6.59,9.356 3.649,14.31c-2.944,4.963 -9.359,6.6 -14.31,3.653m-1.178,31.658c-2.525,4.098 -7.883,5.383 -11.975,2.867c-30.005,-18.444 -75.762,-23.788 -111.262,-13.012c-4.603,1.39 -9.466,-1.204 -10.864,-5.8a8.717,8.717 0 0 1 5.805,-10.856c40.553,-12.307 90.968,-6.347 125.432,14.833c4.092,2.52 5.38,7.88 2.864,11.968m-13.663,30.404a6.954,6.954 0 0 1 -9.569,2.316c-26.22,-16.025 -59.223,-19.644 -98.09,-10.766a6.955,6.955 0 0 1 -8.331,-5.232a6.95,6.95 0 0 1 5.233,-8.334c42.533,-9.722 79.017,-5.538 108.448,12.446a6.96,6.96 0 0 1 2.31,9.57m-51.21,-161.049c-61.664,0 -111.656,49.99 -111.656,111.656c0,61.672 49.992,111.66 111.657,111.66c61.668,0 111.659,-49.988 111.659,-111.66c0,-61.665 -49.99,-111.656 -111.659,-111.656" fill="white"/>
 </g>
</svg>